<svg width="540pt" height="505pt"
 viewBox="0.00 0.00 540.00 505.38" xmlns="http://www.w3.org/2000/svg" xmlns:xlink="http://www.w3.org/1999/xlink">
<g id="graph0" class="graph" transform="scale(0.480855 0.480855) rotate(0) translate(4 1046.21)">
<title>asde91</title>
<polygon style="fill:white;stroke:white;" points="-4,4 -4,-1046.21 1119,-1046.21 1119,4 -4,4"/>
<g id="cluster16" class="cluster"><title>cluster_main.c</title>
<polygon style="fill:none;stroke:black;" points="1037,-983 1037,-1035 1107,-1035 1107,-983 1037,-983"/>
</g>
<!-- past -->
<g id="node2" class="node"><title>past</title>
<text text-anchor="middle" x="27" y="-1004.35" style="font-family:Times New Roman;font-size:16.00;">past</text>
</g>
<!-- 1978 -->
<g id="node4" class="node"><title>1978</title>
<text text-anchor="middle" x="27" y="-913.35" style="font-family:Times New Roman;font-size:16.00;">1978</text>
</g>
<!-- past&#45;&gt;1978 -->
<g id="edge3" class="edge"><title>past&#45;&gt;1978</title>
<path style="fill:none;stroke:black;" d="M27,-991C27,-978 27,-961 27,-946"/>
<polygon style="fill:black;stroke:black;" points="30.5001,-946 27,-936 23.5001,-946 30.5001,-946"/>
</g>
<!-- 1980 -->
<g id="node5" class="node"><title>1980</title>
<text text-anchor="middle" x="27" y="-823.35" style="font-family:Times New Roman;font-size:16.00;">1980</text>
</g>
<!-- 1978&#45;&gt;1980 -->
<g id="edge4" class="edge"><title>1978&#45;&gt;1980</title>
<path style="fill:none;stroke:black;" d="M27,-900C27,-887 27,-871 27,-856"/>
<polygon style="fill:black;stroke:black;" points="30.5001,-856 27,-846 23.5001,-856 30.5001,-856"/>
</g>
<!-- 1982 -->
<g id="node6" class="node"><title>1982</title>
<text text-anchor="middle" x="27" y="-733.35" style="font-family:Times New Roman;font-size:16.00;">1982</text>
</g>
<!-- 1980&#45;&gt;1982 -->
<g id="edge5" class="edge"><title>1980&#45;&gt;1982</title>
<path style="fill:none;stroke:black;" d="M27,-810C27,-797 27,-781 27,-766"/>
<polygon style="fill:black;stroke:black;" points="30.5001,-766 27,-756 23.5001,-766 30.5001,-766"/>
</g>
<!-- 1983 -->
<g id="node7" class="node"><title>1983</title>
<text text-anchor="middle" x="27" y="-643.35" style="font-family:Times New Roman;font-size:16.00;">1983</text>
</g>
<!-- 1982&#45;&gt;1983 -->
<g id="edge6" class="edge"><title>1982&#45;&gt;1983</title>
<path style="fill:none;stroke:black;" d="M27,-720C27,-707 27,-691 27,-676"/>
<polygon style="fill:black;stroke:black;" points="30.5001,-676 27,-666 23.5001,-676 30.5001,-676"/>
</g>
<!-- 1985 -->
<g id="node8" class="node"><title>1985</title>
<text text-anchor="middle" x="27" y="-553.35" style="font-family:Times New Roman;font-size:16.00;">1985</text>
</g>
<!-- 1983&#45;&gt;1985 -->
<g id="edge7" class="edge"><title>1983&#45;&gt;1985</title>
<path style="fill:none;stroke:black;" d="M27,-630C27,-617 27,-601 27,-586"/>
<polygon style="fill:black;stroke:black;" points="30.5001,-586 27,-576 23.5001,-586 30.5001,-586"/>
</g>
<!-- 1986 -->
<g id="node9" class="node"><title>1986</title>
<text text-anchor="middle" x="27" y="-463.35" style="font-family:Times New Roman;font-size:16.00;">1986</text>
</g>
<!-- 1985&#45;&gt;1986 -->
<g id="edge8" class="edge"><title>1985&#45;&gt;1986</title>
<path style="fill:none;stroke:black;" d="M27,-540C27,-527 27,-511 27,-496"/>
<polygon style="fill:black;stroke:black;" points="30.5001,-496 27,-486 23.5001,-496 30.5001,-496"/>
</g>
<!-- 1987 -->
<g id="node10" class="node"><title>1987</title>
<text text-anchor="middle" x="27" y="-373.35" style="font-family:Times New Roman;font-size:16.00;">1987</text>
</g>
<!-- 1986&#45;&gt;1987 -->
<g id="edge9" class="edge"><title>1986&#45;&gt;1987</title>
<path style="fill:none;stroke:black;" d="M27,-450C27,-437 27,-421 27,-406"/>
<polygon style="fill:black;stroke:black;" points="30.5001,-406 27,-396 23.5001,-406 30.5001,-406"/>
</g>
<!-- 1988 -->
<g id="node11" class="node"><title>1988</title>
<text text-anchor="middle" x="27" y="-283.35" style="font-family:Times New Roman;font-size:16.00;">1988</text>
</g>
<!-- 1987&#45;&gt;1988 -->
<g id="edge10" class="edge"><title>1987&#45;&gt;1988</title>
<path style="fill:none;stroke:black;" d="M27,-360C27,-347 27,-331 27,-316"/>
<polygon style="fill:black;stroke:black;" points="30.5001,-316 27,-306 23.5001,-316 30.5001,-316"/>
</g>
<!-- 1989 -->
<g id="node12" class="node"><title>1989</title>
<text text-anchor="middle" x="27" y="-193.35" style="font-family:Times New Roman;font-size:16.00;">1989</text>
</g>
<!-- 1988&#45;&gt;1989 -->
<g id="edge11" class="edge"><title>1988&#45;&gt;1989</title>
<path style="fill:none;stroke:black;" d="M27,-270C27,-257 27,-241 27,-226"/>
<polygon style="fill:black;stroke:black;" points="30.5001,-226 27,-216 23.5001,-226 30.5001,-226"/>
</g>
<!-- 1990 -->
<g id="node13" class="node"><title>1990</title>
<text text-anchor="middle" x="27" y="-103.35" style="font-family:Times New Roman;font-size:16.00;">1990</text>
</g>
<!-- 1989&#45;&gt;1990 -->
<g id="edge12" class="edge"><title>1989&#45;&gt;1990</title>
<path style="fill:none;stroke:black;" d="M27,-180C27,-167 27,-151 27,-136"/>
<polygon style="fill:black;stroke:black;" points="30.5001,-136 27,-126 23.5001,-136 30.5001,-136"/>
</g>
<!-- future -->
<g id="node14" class="node"><title>future</title>
<text text-anchor="middle" x="27" y="-13.35" style="font-family:Times New Roman;font-size:16.00;">future</text>
</g>
<!-- 1990&#45;&gt;future -->
<g id="edge13" class="edge"><title>1990&#45;&gt;future</title>
<path style="fill:none;stroke:black;" d="M27,-90C27,-77 27,-61 27,-46"/>
<polygon style="fill:black;stroke:black;" points="30.5001,-46 27,-36 23.5001,-46 30.5001,-46"/>
</g>
<!-- Bourne sh -->
<g id="node15" class="node"><title>Bourne sh</title>
<text text-anchor="middle" x="112" y="-1004.35" style="font-family:Times New Roman;font-size:16.00;">Bourne sh</text>
</g>
<!-- make -->
<g id="node16" class="node"><title>make</title>
<text text-anchor="middle" x="197" y="-1004.35" style="font-family:Times New Roman;font-size:16.00;">make</text>
</g>
<!-- build -->
<g id="node23" class="node"><title>build</title>
<text text-anchor="middle" x="169" y="-823.35" style="font-family:Times New Roman;font-size:16.00;">build</text>
</g>
<!-- make&#45;&gt;build -->
<g id="edge38" class="edge"><title>make&#45;&gt;build</title>
<path style="fill:none;stroke:black;" d="M194,-991C189,-959 179,-894 174,-856"/>
<polygon style="fill:black;stroke:black;" points="177.393,-855.119 172,-846 170.529,-856.492 177.393,-855.119"/>
</g>
<!-- nmake -->
<g id="node44" class="node"><title>nmake</title>
<polygon style="fill:none;stroke:black;" points="298,-576 244,-576 244,-540 298,-540 298,-576"/>
<text text-anchor="middle" x="271" y="-554.4" style="font-family:Times New Roman;font-size:14.00;">nmake</text>
</g>
<!-- make&#45;&gt;nmake -->
<g id="edge36" class="edge"><title>make&#45;&gt;nmake</title>
<path style="fill:none;stroke:black;" d="M202,-991C209,-958 224,-888 224,-828 224,-828 224,-828 224,-738 224,-682 245,-620 259,-585"/>
<polygon style="fill:black;stroke:black;" points="262.137,-586.56 263,-576 255.74,-583.717 262.137,-586.56"/>
</g>
<!-- SCCS -->
<g id="node17" class="node"><title>SCCS</title>
<text text-anchor="middle" x="334" y="-1004.35" style="font-family:Times New Roman;font-size:16.00;">SCCS</text>
</g>
<!-- RCS -->
<g id="node26" class="node"><title>RCS</title>
<text text-anchor="middle" x="279" y="-733.35" style="font-family:Times New Roman;font-size:16.00;">RCS</text>
</g>
<!-- SCCS&#45;&gt;RCS -->
<g id="edge34" class="edge"><title>SCCS&#45;&gt;RCS</title>
<path style="fill:none;stroke:black;" d="M330,-991C321,-944 296,-821 285,-766"/>
<polygon style="fill:black;stroke:black;" points="288.393,-765.119 283,-756 281.529,-766.492 288.393,-765.119"/>
</g>
<!-- SCCS&#45;&gt;nmake -->
<g id="edge30" class="edge"><title>SCCS&#45;&gt;nmake</title>
<path style="fill:none;stroke:black;" d="M334,-991C334,-958 334,-887 334,-828 334,-828 334,-828 334,-738 334,-681 306,-620 287,-585"/>
<polygon style="fill:black;stroke:black;" points="289.916,-583.042 282,-576 283.797,-586.441 289.916,-583.042"/>
</g>
<!-- 3D File System -->
<g id="node54" class="node"><title>3D File System</title>
<polygon style="fill:none;stroke:black;" points="422.248,-396 321.752,-396 321.752,-360 422.248,-360 422.248,-396"/>
<text text-anchor="middle" x="372" y="-374.4" style="font-family:Times New Roman;font-size:14.00;">3D File System</text>
</g>
<!-- SCCS&#45;&gt;3D File System -->
<g id="edge32" class="edge"><title>SCCS&#45;&gt;3D File System</title>
<path style="fill:none;stroke:black;" d="M340,-991C351,-959 372,-889 372,-828 372,-828 372,-828 372,-558 372,-505 372,-442 372,-406"/>
<polygon style="fill:black;stroke:black;" points="375.5,-406 372,-396 368.5,-406 375.5,-406"/>
</g>
<!-- yacc -->
<g id="node18" class="node"><title>yacc</title>
<text text-anchor="middle" x="406" y="-1004.35" style="font-family:Times New Roman;font-size:16.00;">yacc</text>
</g>
<!-- cron -->
<g id="node19" class="node"><title>cron</title>
<text text-anchor="middle" x="478" y="-1004.35" style="font-family:Times New Roman;font-size:16.00;">cron</text>
</g>
<!-- Reiser cpp -->
<g id="node20" class="node"><title>Reiser cpp</title>
<text text-anchor="middle" x="441" y="-913.35" style="font-family:Times New Roman;font-size:16.00;">Reiser cpp</text>
</g>
<!-- Cshell -->
<g id="node21" class="node"><title>Cshell</title>
<text text-anchor="middle" x="528" y="-913.35" style="font-family:Times New Roman;font-size:16.00;">Cshell</text>
</g>
<!-- emacs -->
<g id="node22" class="node"><title>emacs</title>
<text text-anchor="middle" x="427" y="-823.35" style="font-family:Times New Roman;font-size:16.00;">emacs</text>
</g>
<!-- vi -->
<g id="node24" class="node"><title>vi</title>
<text text-anchor="middle" x="499" y="-823.35" style="font-family:Times New Roman;font-size:16.00;">vi</text>
</g>
<!-- &lt;curses&gt; -->
<g id="node25" class="node"><title>&lt;curses&gt;</title>
<text text-anchor="middle" x="436" y="-733.35" style="font-family:Times New Roman;font-size:16.00;">&lt;curses&gt;</text>
</g>
<!-- C* -->
<g id="node27" class="node"><title>C*</title>
<text text-anchor="middle" x="427" y="-463.35" style="font-family:Times New Roman;font-size:16.00;">C*</text>
</g>
<!-- Software IS -->
<g id="node29" class="node"><title>Software IS</title>
<ellipse style="fill:none;stroke:black;" cx="568" cy="-1009" rx="45.1333" ry="18.3848"/>
<text text-anchor="middle" x="568" y="-1005.4" style="font-family:Times New Roman;font-size:14.00;">Software IS</text>
</g>
<!-- Configuration Mgt -->
<g id="node30" class="node"><title>Configuration Mgt</title>
<ellipse style="fill:none;stroke:black;" cx="696" cy="-1009" rx="64.7598" ry="18.3848"/>
<text text-anchor="middle" x="696" y="-1005.4" style="font-family:Times New Roman;font-size:14.00;">Configuration Mgt</text>
</g>
<!-- Architecture &amp; Libraries -->
<g id="node31" class="node"><title>Architecture &amp; Libraries</title>
<ellipse style="fill:none;stroke:black;" cx="860" cy="-1009" rx="80.8848" ry="18.3848"/>
<text text-anchor="middle" x="860" y="-1005.4" style="font-family:Times New Roman;font-size:14.00;">Architecture &amp; Libraries</text>
</g>
<!-- Process -->
<g id="node32" class="node"><title>Process</title>
<ellipse style="fill:none;stroke:black;" cx="993" cy="-1009" rx="34.0098" ry="18.3848"/>
<text text-anchor="middle" x="993" y="-1005.4" style="font-family:Times New Roman;font-size:14.00;">Process</text>
</g>
<!-- IMX -->
<g id="node37" class="node"><title>IMX</title>
<polygon style="fill:none;stroke:black;" points="544,-756 490,-756 490,-720 544,-720 544,-756"/>
<text text-anchor="middle" x="517" y="-734.4" style="font-family:Times New Roman;font-size:14.00;">IMX</text>
</g>
<!-- SYNED -->
<g id="node38" class="node"><title>SYNED</title>
<polygon style="fill:none;stroke:black;" points="622,-756 562,-756 562,-720 622,-720 622,-756"/>
<text text-anchor="middle" x="592" y="-734.4" style="font-family:Times New Roman;font-size:14.00;">SYNED</text>
</g>
<!-- ksh -->
<g id="node40" class="node"><title>ksh</title>
<polygon style="fill:none;stroke:black;" points="454,-666 400,-666 400,-630 454,-630 454,-666"/>
<text text-anchor="middle" x="427" y="-644.4" style="font-family:Times New Roman;font-size:14.00;">ksh</text>
</g>
<!-- IFS -->
<g id="node41" class="node"><title>IFS</title>
<polygon style="fill:none;stroke:black;" points="526,-666 472,-666 472,-630 526,-630 526,-666"/>
<text text-anchor="middle" x="499" y="-644.4" style="font-family:Times New Roman;font-size:14.00;">IFS</text>
</g>
<!-- TTU -->
<g id="node42" class="node"><title>TTU</title>
<polygon style="fill:none;stroke:black;" points="598,-666 544,-666 544,-630 598,-630 598,-666"/>
<text text-anchor="middle" x="571" y="-644.4" style="font-family:Times New Roman;font-size:14.00;">TTU</text>
</g>
<!-- Peggy -->
<g id="node45" class="node"><title>Peggy</title>
<polygon style="fill:none;stroke:black;" points="454,-576 400,-576 400,-540 454,-540 454,-576"/>
<text text-anchor="middle" x="427" y="-554.4" style="font-family:Times New Roman;font-size:14.00;">Peggy</text>
</g>
<!-- ncpp -->
<g id="node47" class="node"><title>ncpp</title>
<polygon style="fill:none;stroke:black;" points="526,-486 472,-486 472,-450 526,-450 526,-486"/>
<text text-anchor="middle" x="499" y="-464.4" style="font-family:Times New Roman;font-size:14.00;">ncpp</text>
</g>
<!-- ksh&#45;i -->
<g id="node48" class="node"><title>ksh&#45;i</title>
<polygon style="fill:none;stroke:black;" points="598,-486 544,-486 544,-450 598,-450 598,-486"/>
<text text-anchor="middle" x="571" y="-464.4" style="font-family:Times New Roman;font-size:14.00;">ksh&#45;i</text>
</g>
<!-- &lt;curses&#45;i&gt; -->
<g id="node49" class="node"><title>&lt;curses&#45;i&gt;</title>
<polygon style="fill:none;stroke:black;" points="690.25,-486 615.75,-486 615.75,-450 690.25,-450 690.25,-486"/>
<text text-anchor="middle" x="653" y="-464.4" style="font-family:Times New Roman;font-size:14.00;">&lt;curses&#45;i&gt;</text>
</g>
<!-- PG2 -->
<g id="node50" class="node"><title>PG2</title>
<polygon style="fill:none;stroke:black;" points="762,-486 708,-486 708,-450 762,-450 762,-486"/>
<text text-anchor="middle" x="735" y="-464.4" style="font-family:Times New Roman;font-size:14.00;">PG2</text>
</g>
<!-- Ansi cpp -->
<g id="node52" class="node"><title>Ansi cpp</title>
<polygon style="fill:none;stroke:black;" points="503.877,-396 440.123,-396 440.123,-360 503.877,-360 503.877,-396"/>
<text text-anchor="middle" x="472" y="-374.4" style="font-family:Times New Roman;font-size:14.00;">Ansi cpp</text>
</g>
<!-- nmake 2.0 -->
<g id="node53" class="node"><title>nmake 2.0</title>
<polygon style="fill:none;stroke:black;" points="595.875,-396 522.125,-396 522.125,-360 595.875,-360 595.875,-396"/>
<text text-anchor="middle" x="559" y="-374.4" style="font-family:Times New Roman;font-size:14.00;">nmake 2.0</text>
</g>
<!-- fdelta -->
<g id="node55" class="node"><title>fdelta</title>
<polygon style="fill:none;stroke:black;" points="668,-396 614,-396 614,-360 668,-360 668,-396"/>
<text text-anchor="middle" x="641" y="-374.4" style="font-family:Times New Roman;font-size:14.00;">fdelta</text>
</g>
<!-- DAG -->
<g id="node56" class="node"><title>DAG</title>
<polygon style="fill:none;stroke:black;" points="740,-396 686,-396 686,-360 740,-360 740,-396"/>
<text text-anchor="middle" x="713" y="-374.4" style="font-family:Times New Roman;font-size:14.00;">DAG</text>
</g>
<!-- CSAS -->
<g id="node57" class="node"><title>CSAS</title>
<polygon style="fill:none;stroke:black;" points="812,-396 758,-396 758,-360 812,-360 812,-396"/>
<text text-anchor="middle" x="785" y="-374.4" style="font-family:Times New Roman;font-size:14.00;">CSAS</text>
</g>
<!-- CIA -->
<g id="node59" class="node"><title>CIA</title>
<polygon style="fill:none;stroke:black;" points="126,-306 72,-306 72,-270 126,-270 126,-306"/>
<text text-anchor="middle" x="99" y="-284.4" style="font-family:Times New Roman;font-size:14.00;">CIA</text>
</g>
<!-- SBCS -->
<g id="node60" class="node"><title>SBCS</title>
<polygon style="fill:none;stroke:black;" points="198,-306 144,-306 144,-270 198,-270 198,-306"/>
<text text-anchor="middle" x="171" y="-284.4" style="font-family:Times New Roman;font-size:14.00;">SBCS</text>
</g>
<!-- ksh&#45;88 -->
<g id="node61" class="node"><title>ksh&#45;88</title>
<polygon style="fill:none;stroke:black;" points="270,-306 216,-306 216,-270 270,-270 270,-306"/>
<text text-anchor="middle" x="243" y="-284.4" style="font-family:Times New Roman;font-size:14.00;">ksh&#45;88</text>
</g>
<!-- PEGASUS/PML -->
<g id="node62" class="node"><title>PEGASUS/PML</title>
<polygon style="fill:none;stroke:black;" points="396.125,-306 287.875,-306 287.875,-270 396.125,-270 396.125,-306"/>
<text text-anchor="middle" x="342" y="-284.4" style="font-family:Times New Roman;font-size:14.00;">PEGASUS/PML</text>
</g>
<!-- ML&#45;X -->
<g id="node80" class="node"><title>ML&#45;X</title>
<polygon style="fill:none;stroke:black;" points="369,-126 315,-126 315,-90 369,-90 369,-126"/>
<text text-anchor="middle" x="342" y="-104.4" style="font-family:Times New Roman;font-size:14.00;">ML&#45;X</text>
</g>
<!-- PEGASUS/PML&#45;&gt;ML&#45;X -->
<g id="edge28" class="edge"><title>PEGASUS/PML&#45;&gt;ML&#45;X</title>
<path style="fill:none;stroke:black;" d="M342,-270C342,-238 342,-173 342,-136"/>
<polygon style="fill:black;stroke:black;" points="345.5,-136 342,-126 338.5,-136 345.5,-136"/>
</g>
<!-- PAX -->
<g id="node63" class="node"><title>PAX</title>
<polygon style="fill:none;stroke:black;" points="468,-306 414,-306 414,-270 468,-270 468,-306"/>
<text text-anchor="middle" x="441" y="-284.4" style="font-family:Times New Roman;font-size:14.00;">PAX</text>
</g>
<!-- backtalk -->
<g id="node64" class="node"><title>backtalk</title>
<polygon style="fill:none;stroke:black;" points="547.875,-306 486.125,-306 486.125,-270 547.875,-270 547.875,-306"/>
<text text-anchor="middle" x="517" y="-284.4" style="font-family:Times New Roman;font-size:14.00;">backtalk</text>
</g>
<!-- CIA++ -->
<g id="node66" class="node"><title>CIA++</title>
<polygon style="fill:none;stroke:black;" points="425.875,-216 370.125,-216 370.125,-180 425.875,-180 425.875,-216"/>
<text text-anchor="middle" x="398" y="-194.4" style="font-family:Times New Roman;font-size:14.00;">CIA++</text>
</g>
<!-- APP -->
<g id="node67" class="node"><title>APP</title>
<polygon style="fill:none;stroke:black;" points="498,-216 444,-216 444,-180 498,-180 498,-216"/>
<text text-anchor="middle" x="471" y="-194.4" style="font-family:Times New Roman;font-size:14.00;">APP</text>
</g>
<!-- SHIP -->
<g id="node68" class="node"><title>SHIP</title>
<polygon style="fill:none;stroke:black;" points="570,-216 516,-216 516,-180 570,-180 570,-216"/>
<text text-anchor="middle" x="543" y="-194.4" style="font-family:Times New Roman;font-size:14.00;">SHIP</text>
</g>
<!-- DataShare -->
<g id="node69" class="node"><title>DataShare</title>
<polygon style="fill:none;stroke:black;" points="660.125,-216 587.875,-216 587.875,-180 660.125,-180 660.125,-216"/>
<text text-anchor="middle" x="624" y="-194.4" style="font-family:Times New Roman;font-size:14.00;">DataShare</text>
</g>
<!-- ryacc -->
<g id="node70" class="node"><title>ryacc</title>
<polygon style="fill:none;stroke:black;" points="732,-216 678,-216 678,-180 732,-180 732,-216"/>
<text text-anchor="middle" x="705" y="-194.4" style="font-family:Times New Roman;font-size:14.00;">ryacc</text>
</g>
<!-- Mosaic -->
<g id="node71" class="node"><title>Mosaic</title>
<polygon style="fill:none;stroke:black;" points="806.25,-216 749.75,-216 749.75,-180 806.25,-180 806.25,-216"/>
<text text-anchor="middle" x="778" y="-194.4" style="font-family:Times New Roman;font-size:14.00;">Mosaic</text>
</g>
<!-- libft -->
<g id="node73" class="node"><title>libft</title>
<polygon style="fill:none;stroke:black;" points="441,-126 387,-126 387,-90 441,-90 441,-126"/>
<text text-anchor="middle" x="414" y="-104.4" style="font-family:Times New Roman;font-size:14.00;">libft</text>
</g>
<!-- CoShell -->
<g id="node74" class="node"><title>CoShell</title>
<polygon style="fill:none;stroke:black;" points="517.246,-126 458.754,-126 458.754,-90 517.246,-90 517.246,-126"/>
<text text-anchor="middle" x="488" y="-104.4" style="font-family:Times New Roman;font-size:14.00;">CoShell</text>
</g>
<!-- DIA -->
<g id="node75" class="node"><title>DIA</title>
<polygon style="fill:none;stroke:black;" points="589,-126 535,-126 535,-90 589,-90 589,-126"/>
<text text-anchor="middle" x="562" y="-104.4" style="font-family:Times New Roman;font-size:14.00;">DIA</text>
</g>
<!-- IFS&#45;i -->
<g id="node76" class="node"><title>IFS&#45;i</title>
<polygon style="fill:none;stroke:black;" points="661,-126 607,-126 607,-90 661,-90 661,-126"/>
<text text-anchor="middle" x="634" y="-104.4" style="font-family:Times New Roman;font-size:14.00;">IFS&#45;i</text>
</g>
<!-- kyacc -->
<g id="node77" class="node"><title>kyacc</title>
<polygon style="fill:none;stroke:black;" points="733,-126 679,-126 679,-90 733,-90 733,-126"/>
<text text-anchor="middle" x="706" y="-104.4" style="font-family:Times New Roman;font-size:14.00;">kyacc</text>
</g>
<!-- sfio -->
<g id="node78" class="node"><title>sfio</title>
<polygon style="fill:none;stroke:black;" points="805,-126 751,-126 751,-90 805,-90 805,-126"/>
<text text-anchor="middle" x="778" y="-104.4" style="font-family:Times New Roman;font-size:14.00;">sfio</text>
</g>
<!-- yeast -->
<g id="node79" class="node"><title>yeast</title>
<polygon style="fill:none;stroke:black;" points="877,-126 823,-126 823,-90 877,-90 877,-126"/>
<text text-anchor="middle" x="850" y="-104.4" style="font-family:Times New Roman;font-size:14.00;">yeast</text>
</g>
<!-- DOT -->
<g id="node81" class="node"><title>DOT</title>
<polygon style="fill:none;stroke:black;" points="949,-126 895,-126 895,-90 949,-90 949,-126"/>
<text text-anchor="middle" x="922" y="-104.4" style="font-family:Times New Roman;font-size:14.00;">DOT</text>
</g>
<!-- Adv. Software Technology -->
<g id="node83" class="node"><title>Adv. Software Technology</title>
<polygon style="fill:none;stroke:black;" points="235.875,-36 72.125,-36 72.125,-7.10543e-15 235.875,-0 235.875,-36"/>
<text text-anchor="middle" x="154" y="-14.4" style="font-family:Times New Roman;font-size:14.00;">Adv. Software Technology</text>
</g>
<!-- nccp -->
<g id="node91" class="node"><title>nccp</title>
<polygon style="fill:none;stroke:black;" points="1099,-1027 1045,-1027 1045,-991 1099,-991 1099,-1027"/>
<text text-anchor="middle" x="1072" y="-1005.4" style="font-family:Times New Roman;font-size:14.00;">nccp</text>
</g>
</g>
</svg>
