<?xml version="1.0" encoding="UTF-8" standalone="no"?>
<!DOCTYPE svg PUBLIC "-//W3C//DTD SVG 1.0//EN"
 "http://www.w3.org/TR/2001/REC-SVG-20010904/DTD/svg10.dtd" [
 <!ATTLIST svg xmlns:xlink CDATA #FIXED "http://www.w3.org/1999/xlink">
]>
<!-- Generated by Graphviz version 2.16 (Fri Feb  8 12:52:03 UTC 2008)
     For user: (pratap) R Pratap Chakravarthy -->
<!-- Title: G Pages: 1 -->
<svg width="1008pt" height="1008pt"
 viewBox="0.00 0.00 1008.00 1008.00" xmlns="http://www.w3.org/2000/svg" xmlns:xlink="http://www.w3.org/1999/xlink">
<g id="graph0" class="graph" transform="scale(0.479087 0.479087) rotate(0) translate(4 2100)">
<title>G</title>
<polygon style="fill:white;stroke:white;" points="-4,4 -4,-2100 2100,-2100 2100,4 -4,4"/>
<!-- past -->
<g id="node2" class="node"><title>past</title>
<ellipse style="fill:none;stroke:black;" cx="35" cy="-2026" rx="34.8397" ry="26.3397"/>
<text text-anchor="middle" x="35" y="-2019.03" style="font-family:Times New Roman;font-size:24.00;">past</text>
</g>
<!-- 1978 -->
<g id="node4" class="node"><title>1978</title>
<ellipse style="fill:none;stroke:black;" cx="127" cy="-2026" rx="39.212" ry="26.3397"/>
<text text-anchor="middle" x="127" y="-2019.03" style="font-family:Times New Roman;font-size:24.00;">1978</text>
</g>
<!-- past&#45;&gt;1978 -->
<g id="edge3" class="edge"><title>past&#45;&gt;1978</title>
<path style="fill:none;stroke:black;" d="M70,-2026C73,-2026 75,-2026 78,-2026"/>
<polygon style="fill:black;stroke:black;" points="78,-2029.5 88,-2026 78,-2022.5 78,-2029.5"/>
</g>
<!-- 1980 -->
<g id="node5" class="node"><title>1980</title>
<ellipse style="fill:none;stroke:black;" cx="223" cy="-2026" rx="39.212" ry="26.3397"/>
<text text-anchor="middle" x="223" y="-2019.03" style="font-family:Times New Roman;font-size:24.00;">1980</text>
</g>
<!-- 1978&#45;&gt;1980 -->
<g id="edge4" class="edge"><title>1978&#45;&gt;1980</title>
<path style="fill:none;stroke:black;" d="M166,-2026C169,-2026 171,-2026 174,-2026"/>
<polygon style="fill:black;stroke:black;" points="174,-2029.5 184,-2026 174,-2022.5 174,-2029.5"/>
</g>
<!-- 1982 -->
<g id="node6" class="node"><title>1982</title>
<ellipse style="fill:none;stroke:black;" cx="319" cy="-2026" rx="39.212" ry="26.3397"/>
<text text-anchor="middle" x="319" y="-2019.03" style="font-family:Times New Roman;font-size:24.00;">1982</text>
</g>
<!-- 1980&#45;&gt;1982 -->
<g id="edge5" class="edge"><title>1980&#45;&gt;1982</title>
<path style="fill:none;stroke:black;" d="M262,-2026C265,-2026 267,-2026 270,-2026"/>
<polygon style="fill:black;stroke:black;" points="270,-2029.5 280,-2026 270,-2022.5 270,-2029.5"/>
</g>
<!-- 1983 -->
<g id="node7" class="node"><title>1983</title>
<ellipse style="fill:none;stroke:black;" cx="415" cy="-2026" rx="39.212" ry="26.3397"/>
<text text-anchor="middle" x="415" y="-2019.03" style="font-family:Times New Roman;font-size:24.00;">1983</text>
</g>
<!-- 1982&#45;&gt;1983 -->
<g id="edge6" class="edge"><title>1982&#45;&gt;1983</title>
<path style="fill:none;stroke:black;" d="M358,-2026C361,-2026 363,-2026 366,-2026"/>
<polygon style="fill:black;stroke:black;" points="366,-2029.5 376,-2026 366,-2022.5 366,-2029.5"/>
</g>
<!-- 1985 -->
<g id="node8" class="node"><title>1985</title>
<ellipse style="fill:none;stroke:black;" cx="415" cy="-1746" rx="39.212" ry="26.3397"/>
<text text-anchor="middle" x="415" y="-1739.03" style="font-family:Times New Roman;font-size:24.00;">1985</text>
</g>
<!-- 1983&#45;&gt;1985 -->
<g id="edge7" class="edge"><title>1983&#45;&gt;1985</title>
<path style="fill:none;stroke:black;" d="M415,-1999C415,-1949 415,-1841 415,-1783"/>
<polygon style="fill:black;stroke:black;" points="418.5,-1783 415,-1773 411.5,-1783 418.5,-1783"/>
</g>
<!-- 1986 -->
<g id="node9" class="node"><title>1986</title>
<ellipse style="fill:none;stroke:black;" cx="415" cy="-1467" rx="39.212" ry="26.3397"/>
<text text-anchor="middle" x="415" y="-1460.03" style="font-family:Times New Roman;font-size:24.00;">1986</text>
</g>
<!-- 1985&#45;&gt;1986 -->
<g id="edge8" class="edge"><title>1985&#45;&gt;1986</title>
<path style="fill:none;stroke:black;" d="M415,-1719C415,-1669 415,-1561 415,-1504"/>
<polygon style="fill:black;stroke:black;" points="418.5,-1504 415,-1494 411.5,-1504 418.5,-1504"/>
</g>
<!-- 1987 -->
<g id="node10" class="node"><title>1987</title>
<ellipse style="fill:none;stroke:black;" cx="415" cy="-1187" rx="39.212" ry="26.3397"/>
<text text-anchor="middle" x="415" y="-1180.03" style="font-family:Times New Roman;font-size:24.00;">1987</text>
</g>
<!-- 1986&#45;&gt;1987 -->
<g id="edge9" class="edge"><title>1986&#45;&gt;1987</title>
<path style="fill:none;stroke:black;" d="M415,-1440C415,-1390 415,-1282 415,-1224"/>
<polygon style="fill:black;stroke:black;" points="418.5,-1224 415,-1214 411.5,-1224 418.5,-1224"/>
</g>
<!-- 1988 -->
<g id="node11" class="node"><title>1988</title>
<ellipse style="fill:none;stroke:black;" cx="415" cy="-908" rx="39.212" ry="26.3397"/>
<text text-anchor="middle" x="415" y="-901.025" style="font-family:Times New Roman;font-size:24.00;">1988</text>
</g>
<!-- 1987&#45;&gt;1988 -->
<g id="edge10" class="edge"><title>1987&#45;&gt;1988</title>
<path style="fill:none;stroke:black;" d="M415,-1160C415,-1110 415,-1002 415,-945"/>
<polygon style="fill:black;stroke:black;" points="418.5,-945 415,-935 411.5,-945 418.5,-945"/>
</g>
<!-- 1989 -->
<g id="node12" class="node"><title>1989</title>
<ellipse style="fill:none;stroke:black;" cx="415" cy="-628" rx="39.212" ry="26.3397"/>
<text text-anchor="middle" x="415" y="-621.025" style="font-family:Times New Roman;font-size:24.00;">1989</text>
</g>
<!-- 1988&#45;&gt;1989 -->
<g id="edge11" class="edge"><title>1988&#45;&gt;1989</title>
<path style="fill:none;stroke:black;" d="M415,-881C415,-831 415,-723 415,-665"/>
<polygon style="fill:black;stroke:black;" points="418.5,-665 415,-655 411.5,-665 418.5,-665"/>
</g>
<!-- 1990 -->
<g id="node13" class="node"><title>1990</title>
<ellipse style="fill:none;stroke:black;" cx="415" cy="-349" rx="39.212" ry="26.3397"/>
<text text-anchor="middle" x="415" y="-342.025" style="font-family:Times New Roman;font-size:24.00;">1990</text>
</g>
<!-- 1989&#45;&gt;1990 -->
<g id="edge12" class="edge"><title>1989&#45;&gt;1990</title>
<path style="fill:none;stroke:black;" d="M415,-601C415,-551 415,-443 415,-386"/>
<polygon style="fill:black;stroke:black;" points="418.5,-386 415,-376 411.5,-386 418.5,-386"/>
</g>
<!-- future -->
<g id="node14" class="node"><title>future</title>
<ellipse style="fill:none;stroke:black;" cx="415" cy="-69" rx="44.0887" ry="26.3397"/>
<text text-anchor="middle" x="415" y="-62.025" style="font-family:Times New Roman;font-size:24.00;">future</text>
</g>
<!-- 1990&#45;&gt;future -->
<g id="edge13" class="edge"><title>1990&#45;&gt;future</title>
<path style="fill:none;stroke:black;" d="M415,-322C415,-272 415,-164 415,-106"/>
<polygon style="fill:black;stroke:black;" points="418.5,-106 415,-96 411.5,-106 418.5,-106"/>
</g>
<!-- projectA -->
<g id="node16" class="node"><title>projectA</title>
<ellipse style="fill:none;stroke:black;" cx="529" cy="-2026" rx="57.2129" ry="26.3397"/>
<text text-anchor="middle" x="529" y="-2019.03" style="font-family:Times New Roman;font-size:24.00;">projectA</text>
</g>
<!-- ProjectB -->
<g id="node17" class="node"><title>ProjectB</title>
<ellipse style="fill:none;stroke:black;" cx="661" cy="-2026" rx="57.2129" ry="26.3397"/>
<text text-anchor="middle" x="661" y="-2019.03" style="font-family:Times New Roman;font-size:24.00;">ProjectB</text>
</g>
<!-- ProjectC -->
<g id="node18" class="node"><title>ProjectC</title>
<ellipse style="fill:none;stroke:black;" cx="793" cy="-2026" rx="57.2129" ry="26.3397"/>
<text text-anchor="middle" x="793" y="-2019.03" style="font-family:Times New Roman;font-size:24.00;">ProjectC</text>
</g>
<!-- TA1 -->
<g id="node20" class="node"><title>TA1</title>
<ellipse style="fill:none;stroke:black;" cx="906" cy="-2026" rx="37.8397" ry="26.3397"/>
<text text-anchor="middle" x="906" y="-2019.03" style="font-family:Times New Roman;font-size:24.00;">TA1</text>
</g>
<!-- TA2 -->
<g id="node21" class="node"><title>TA2</title>
<ellipse style="fill:none;stroke:black;" cx="1000" cy="-2026" rx="37.8397" ry="26.3397"/>
<text text-anchor="middle" x="1000" y="-2019.03" style="font-family:Times New Roman;font-size:24.00;">TA2</text>
</g>
<!-- TA3 -->
<g id="node22" class="node"><title>TA3</title>
<ellipse style="fill:none;stroke:black;" cx="1094" cy="-2026" rx="37.8397" ry="26.3397"/>
<text text-anchor="middle" x="1094" y="-2019.03" style="font-family:Times New Roman;font-size:24.00;">TA3</text>
</g>
<!-- TA4 -->
<g id="node23" class="node"><title>TA4</title>
<ellipse style="fill:none;stroke:black;" cx="1188" cy="-2026" rx="37.8397" ry="26.3397"/>
<text text-anchor="middle" x="1188" y="-2019.03" style="font-family:Times New Roman;font-size:24.00;">TA4</text>
</g>
<!-- ProjectA -->
<g id="node24" class="node"><title>ProjectA</title>
<ellipse style="fill:none;stroke:black;" cx="1302" cy="-2026" rx="57.965" ry="26.3397"/>
<text text-anchor="middle" x="1302" y="-2019.03" style="font-family:Times New Roman;font-size:24.00;">ProjectA</text>
</g>
<!-- TB1 -->
<g id="node26" class="node"><title>TB1</title>
<ellipse style="fill:none;stroke:black;" cx="1415" cy="-2026" rx="37.0897" ry="26.3397"/>
<text text-anchor="middle" x="1415" y="-2019.03" style="font-family:Times New Roman;font-size:24.00;">TB1</text>
</g>
<!-- TB2 -->
<g id="node27" class="node"><title>TB2</title>
<ellipse style="fill:none;stroke:black;" cx="1507" cy="-2026" rx="37.0897" ry="26.3397"/>
<text text-anchor="middle" x="1507" y="-2019.03" style="font-family:Times New Roman;font-size:24.00;">TB2</text>
</g>
<!-- TB3 -->
<g id="node28" class="node"><title>TB3</title>
<ellipse style="fill:none;stroke:black;" cx="1599" cy="-2026" rx="37.0897" ry="26.3397"/>
<text text-anchor="middle" x="1599" y="-2019.03" style="font-family:Times New Roman;font-size:24.00;">TB3</text>
</g>
<!-- TB4 -->
<g id="node29" class="node"><title>TB4</title>
<ellipse style="fill:none;stroke:black;" cx="1691" cy="-2026" rx="37.0897" ry="26.3397"/>
<text text-anchor="middle" x="1691" y="-2019.03" style="font-family:Times New Roman;font-size:24.00;">TB4</text>
</g>
<!-- TC1 -->
<g id="node31" class="node"><title>TC1</title>
<ellipse style="fill:none;stroke:black;" cx="1783" cy="-2026" rx="37.0897" ry="26.3397"/>
<text text-anchor="middle" x="1783" y="-2019.03" style="font-family:Times New Roman;font-size:24.00;">TC1</text>
</g>
<!-- TC2 -->
<g id="node32" class="node"><title>TC2</title>
<ellipse style="fill:none;stroke:black;" cx="1875" cy="-2026" rx="37.0897" ry="26.3397"/>
<text text-anchor="middle" x="1875" y="-2019.03" style="font-family:Times New Roman;font-size:24.00;">TC2</text>
</g>
<!-- TC3 -->
<g id="node33" class="node"><title>TC3</title>
<ellipse style="fill:none;stroke:black;" cx="1967" cy="-2026" rx="37.0897" ry="26.3397"/>
<text text-anchor="middle" x="1967" y="-2019.03" style="font-family:Times New Roman;font-size:24.00;">TC3</text>
</g>
<!-- TC4 -->
<g id="node34" class="node"><title>TC4</title>
<ellipse style="fill:none;stroke:black;" cx="2059" cy="-2026" rx="37.0897" ry="26.3397"/>
<text text-anchor="middle" x="2059" y="-2019.03" style="font-family:Times New Roman;font-size:24.00;">TC4</text>
</g>
</g>
</svg>
